<svg width="372" height="487" viewBox="0 0 372 487" fill="none" xmlns="http://www.w3.org/2000/svg">
<path d="M343.9 317.241H227.251V473.467H343.9V317.241Z" fill="#B2B2B2"/>
<path d="M227.707 317.241H111.058V473.467H227.707V317.241Z" fill="#D1D1D1"/>
<path d="M166.593 127.807L161.621 211.783L138.238 273.363H180.335L202.199 220.305L209.032 160.007L166.593 127.807Z" fill="#F7EBE7"/>
<path d="M165.419 421.319L173.883 454.608L145.452 457.46L137.367 424.683L165.419 421.319Z" fill="#FCC9A7"/>
<path d="M175.59 451.609C174.869 449.815 172.592 449.174 171.035 450.328C167.999 452.602 162.532 455.39 154.447 454.717C146.058 454.012 142.908 449.847 141.693 446.835C141.048 445.265 139.264 444.464 137.669 445.137L86.766 466.732C83.6913 468.045 81.2619 470.48 80.0472 473.524C78.9084 476.376 81.186 479.451 84.3745 479.387L172.326 477.337C175.78 477.273 178.437 474.389 178.133 471.057L176.691 454.717C176.653 454.461 176.615 454.172 176.501 453.916L175.59 451.609Z" fill="#1F252A"/>
<path d="M164.924 260.355H98.9133C98.9133 260.355 58.7145 258.464 56.3231 286.307C53.9317 314.149 115.274 393.8 124.877 436.349L180.07 432.504L140.327 316.808L239.172 317.289C246.499 317.321 253.787 316.424 260.695 314.405C279.941 308.766 309.321 300.692 293.302 255.965L164.924 260.355Z" fill="#092330"/>
<path d="M215.865 421.444L229.302 461.237L200.871 464.089L187.813 424.808L215.865 421.444Z" fill="#FCC9A7"/>
<path d="M231.011 458.219C230.29 456.425 228.012 455.784 226.456 456.937C223.419 459.212 217.953 462 209.868 461.327C201.479 460.622 198.328 456.457 197.113 453.445C196.468 451.875 194.684 451.074 193.09 451.747L142.187 473.342C139.112 474.655 136.682 477.09 135.468 480.134C134.329 482.985 136.607 486.061 139.795 485.997L229.265 483.947C232.719 483.883 235.376 480.999 235.073 477.667L232.074 461.327C232.036 461.07 231.998 460.782 231.884 460.526L231.011 458.219Z" fill="#1F252A"/>
<path d="M243.802 94.7917C245.282 96.0092 311.521 110.267 311.521 110.267L297.362 142.018L224.936 137.404L243.802 94.7917Z" fill="#F7EBE7"/>
<path d="M216.472 102.451C216.472 102.451 173.313 115.748 166.594 127.795C168.91 144.808 176.008 161.18 187.699 175.181C202.048 192.354 219.775 221.862 216.51 260.342H341.282C341.282 260.342 334.564 152.08 297.629 110.525L216.472 102.451Z" fill="#F7EBE7"/>
<path d="M230.629 119.616C242.89 117.501 250.785 107.408 248.28 97.0597L240.954 66.7824L196.58 74.4395L203.906 104.717C206.411 115.066 218.368 121.73 230.629 119.616Z" fill="#FCC9A7"/>
<path d="M243.99 77.3702C243.99 77.3702 239.321 101.912 216.698 103.386C196.883 104.668 198.78 80.478 198.78 80.478L243.99 77.3702Z" fill="#F4BE9A"/>
<path d="M218.482 89.9268L222.392 89.1578C242.017 85.3131 254.24 68.7807 249.685 52.2484L244.522 33.3771C239.967 16.8126 220.38 6.49589 200.793 10.3406L196.884 11.1096C177.259 14.9543 165.036 31.4866 169.591 48.0191L174.753 66.8904C179.309 83.4548 198.895 93.7715 218.482 89.9268Z" fill="#FCC9A7"/>
<path d="M237.385 60.1067C236.474 61.4203 235.601 63.4067 235.298 66.4185C234.956 70.2312 232.678 73.8516 228.882 75.9662C217.988 82.0537 209.675 66.6427 193.58 69.3661C193.58 69.3661 187.279 70.1671 186.027 76.0944C184.774 81.9896 176.005 71.6729 174.069 64.6243C172.134 57.5756 171.147 99.5152 210.776 95.9589C210.776 95.9589 230.78 95.4142 244.256 78.209C245.736 76.3187 246.609 74.1079 246.685 71.8331C246.799 68.469 246.23 63.3747 242.434 59.7222C241.105 58.3766 238.448 58.5688 237.385 60.1067Z" fill="#1C2226"/>
<path d="M237.425 50.5846C237.425 50.5846 220.305 45.8107 223.19 24.6967C223.19 24.6967 180.676 58.6585 149.17 33.7318C149.17 33.7318 163.253 30.5599 169.06 22.4219C179.651 7.58758 210.094 -12.8536 234.464 10.7916C234.464 10.7916 264.11 6.91478 255.607 45.4582L237.425 50.5846Z" fill="#1C2226"/>
<path d="M237.424 50.5913C239.056 56.4865 246.041 60.1711 253.025 58.8254C260.048 57.4477 264.375 51.5525 262.78 45.6572C261.148 39.7619 254.164 36.0774 247.18 37.4231C240.157 38.8007 235.792 44.696 237.424 50.5913Z" fill="#FCC9A7"/>
<path d="M215.788 118.446L234.122 118.734L221.292 141.162L207.437 119.663L215.788 118.446Z" fill="#0C2C40"/>
<path d="M249.838 95.7884L226.228 119.049L241.601 133.947L269.881 101.139C269.881 101.139 262.63 91.3029 249.838 95.7884Z" fill="#FFF7F3"/>
<path d="M215.789 118.45L202.199 131.394L192.634 111.209C192.634 111.209 195.139 102.142 202.959 103.872L215.789 118.45Z" fill="#FFF7F3"/>
<path d="M220.798 133.918C220.798 133.918 203.071 172.942 207.475 228.306L224.936 241.763L245.32 225.198L223.342 131.387L220.798 133.918Z" fill="#0C2C40"/>
<path d="M253.939 226.579L215.979 237.12L213.474 255.927L263.808 243.24L253.939 226.579Z" fill="#FCC9A7"/>
<path d="M221.635 249.562C221.635 260.551 211.082 269.49 198.024 269.49C185.004 269.49 174.414 260.583 174.414 249.562C174.414 238.572 184.966 229.633 198.024 229.633C211.044 229.633 221.635 238.54 221.635 249.562Z" fill="#FCC9A7"/>
<path d="M216.471 260.337H150.498C150.498 260.337 110.3 258.446 107.908 286.289C105.517 314.131 171.376 398.907 180.98 441.424L236.172 437.579L191.912 316.758L290.757 317.239C298.084 317.271 305.372 316.374 312.28 314.355C331.526 308.716 360.906 300.642 344.887 255.915L216.471 260.337Z" fill="#0C2C40"/>
<path d="M17.4518 161.899H131.519C135.277 161.899 138.504 164.11 139.301 167.218L160.786 252.251C161.848 256.416 158.053 260.357 153.004 260.357H37.0387C33.2428 260.357 29.9783 258.082 29.2571 254.942L9.67018 169.909C8.68324 165.744 12.4412 161.899 17.4518 161.899Z" fill="#B2B2B2"/>
<path d="M10.8849 161.899H124.914C128.672 161.899 131.899 164.11 132.696 167.218L154.181 252.251C155.244 256.416 151.486 260.357 146.399 260.357H30.4718C26.6759 260.357 23.4115 258.082 22.6903 254.942L3.10331 169.909C2.11637 165.744 5.8743 161.899 10.8849 161.899Z" fill="#D1D1D1"/>
<path d="M157.674 253.087H235.604C237.995 253.087 239.893 254.721 239.893 256.707C239.893 258.726 237.957 260.328 235.604 260.328H156.155L157.674 253.087Z" fill="#B2B2B2"/>
<path d="M81.4896 208.896C81.4896 214.696 75.9476 219.373 69.077 219.373C62.2064 219.373 56.6643 214.664 56.6643 208.896C56.6643 203.097 62.2443 198.419 69.077 198.419C75.9476 198.419 81.4896 203.097 81.4896 208.896Z" fill="white"/>
<path d="M284.305 140.51L325.984 197.316L226.228 227.369L239.893 252.296C239.893 252.296 325.187 244.222 366.411 217.405C370.207 214.938 372.105 210.933 371.459 206.928C369.524 194.112 361.248 163.002 325.984 118.788C318.81 109.785 304.537 107.061 293.415 112.508C281.838 118.147 277.776 130.642 284.305 140.51Z" fill="#F7EBE7"/>
<path d="M252.76 219.374L325.984 197.331L289.353 147.382" stroke="#EADDD8" stroke-width="0.7599" stroke-miterlimit="10" stroke-linecap="round" stroke-linejoin="round"/>
<path d="M203.185 200.55L185.155 160.373" stroke="#EADDD8" stroke-width="0.7599" stroke-miterlimit="10" stroke-linecap="round" stroke-linejoin="round"/>
<path d="M253.937 250.611C253.937 250.611 309.965 244.684 338.207 231.035" stroke="#EADDD8" stroke-width="0.7599" stroke-miterlimit="10" stroke-linecap="round" stroke-linejoin="round"/>
</svg>
